<svg width="164" height="19" viewBox="0 0 164 19" fill="none" xmlns="http://www.w3.org/2000/svg">
<path d="M10.4318 14.2931H17.2997C17.0387 13.5569 16.8967 12.7648 16.8967 11.9396C16.8967 8.52762 19.3246 5.68094 22.5522 5.02258C22.6341 5.00589 22.7164 4.9906 22.7992 4.97675V1.96519C22.7992 0.217916 20.6799 -0.65712 19.4404 0.578387L14.3389 5.66365L9.04056 10.945C7.80344 12.1782 8.6756 14.285 10.4218 14.293L10.4318 14.2931Z" fill="#4E4AFF"/>
<path d="M17.2997 14.2931C18.2721 17.0353 20.8957 19 23.9797 19H26.144C27.2306 19 28.1115 18.1219 28.1115 17.0388V16.7446V14.0969H24.4716C23.222 14.0969 22.209 13.0871 22.209 11.8415C22.209 10.5959 23.222 9.58609 24.4716 9.58609H28.1115V6.84036C28.1115 5.75721 27.2306 4.87913 26.144 4.87913H23.9797C23.5775 4.87913 23.1831 4.91255 22.7992 4.97675C22.7164 4.9906 22.6341 5.00589 22.5522 5.02258C19.3246 5.68094 16.8967 8.52762 16.8967 11.9396C16.8967 12.7648 17.0387 13.5569 17.2997 14.2931Z" fill="#36A368"/>
<path d="M28.1115 9.58609H24.4716C23.222 9.58609 22.209 10.5959 22.209 11.8415C22.209 13.0871 23.222 14.0969 24.4716 14.0969H28.1115V16.7446C28.1115 17.9902 29.1245 19 30.3742 19C31.6238 19 32.6368 17.9902 32.6368 16.7446V11.8415C32.6368 10.5959 31.6238 9.58609 30.3742 9.58609H28.1115Z" fill="#FFA53B"/>
<path d="M10.9801 0.578363L0.580217 10.945C-0.659251 12.1805 0.218592 14.293 1.97147 14.293H10.4218C8.6756 14.285 7.80344 12.1782 9.04056 10.945L14.3389 5.66365V1.96516C14.3389 0.217892 12.2196 -0.657144 10.9801 0.578363Z" fill="#3A37BA"/>
<path d="M41.6119 17.1987V3.32802H45.4263L49.674 9.29404L53.9779 3.32802H57.7102V17.1987H53.4447V13.8103C53.4447 12.661 53.472 11.6108 53.5267 10.6597C53.5416 10.4497 53.5584 10.2398 53.5772 10.0298L50.3071 14.2859H48.9536L45.7377 10.0471C45.7519 10.2312 45.7643 10.4156 45.7749 10.6002C45.8433 11.5381 45.8775 12.6082 45.8775 13.8103V17.1987H41.6119Z" fill="white"/>
<path fill-rule="evenodd" clip-rule="evenodd" d="M63.9177 17.377C62.8376 17.377 61.8943 17.1459 61.0877 16.6835C60.2947 16.2211 59.6727 15.5805 59.2215 14.7614C58.784 13.9292 58.5653 12.9714 58.5653 11.8882C58.5653 10.805 58.784 9.85384 59.2215 9.03481C59.6727 8.20257 60.3016 7.55528 61.1082 7.09292C61.9148 6.61735 62.8581 6.37957 63.9382 6.37957C64.5261 6.37957 65.0661 6.45223 65.5583 6.59754C66.0641 6.72964 66.5016 6.92119 66.8708 7.17218C67.118 7.32577 67.3368 7.49039 67.527 7.66603V6.59754H71.5874V17.1987H67.4245V16.0502C67.244 16.2293 67.0389 16.3942 66.8092 16.5448C66.4264 16.7958 65.9889 17.0005 65.4968 17.1591C65.0183 17.3044 64.4919 17.377 63.9177 17.377ZM66.3991 13.8499C66.03 14.0217 65.5925 14.1075 65.0866 14.1075C64.5671 14.1075 64.1228 14.0217 63.7536 13.8499C63.3982 13.6782 63.1247 13.4272 62.9333 13.0969C62.7419 12.7667 62.6462 12.3638 62.6462 11.8882C62.6462 11.4259 62.7419 11.0296 62.9333 10.6993C63.1247 10.3558 63.3982 10.0982 63.7536 9.9265C64.1228 9.74156 64.5671 9.64909 65.0866 9.64909C65.5925 9.64909 66.03 9.74156 66.3991 9.9265C66.7682 10.0982 67.0485 10.3558 67.2399 10.6993C67.4313 11.0296 67.527 11.4259 67.527 11.8882C67.527 12.3638 67.4313 12.7667 67.2399 13.0969C67.0485 13.4272 66.7682 13.6782 66.3991 13.8499Z" fill="white"/>
<path d="M74.6089 3.68469H78.7719V6.59754H80.9938H83.2156V3.68469H87.3786V6.59754H89.8395V9.96613H87.3786V17.1987H83.2156V9.96613H81.0213H78.7719V17.1987H74.6089V9.96613H72.4146V6.59754H74.6089V3.68469Z" fill="white"/>
<path d="M91.0225 17.1987V2.53541H95.0829V7.72458C95.4974 7.33206 95.9964 7.01583 96.58 6.77588C97.2226 6.51167 97.913 6.37957 98.6512 6.37957C99.5809 6.37957 100.367 6.56451 101.01 6.9344C101.666 7.30428 102.158 7.81948 102.486 8.47999C102.814 9.12729 102.978 9.88027 102.978 10.7389V17.1987H98.8153V11.4325C98.8153 11.0362 98.7469 10.7125 98.6102 10.4615C98.4735 10.1973 98.2684 9.99255 97.995 9.84724C97.7352 9.70193 97.4276 9.63588 97.0722 9.64909C96.7987 9.64909 96.5458 9.68872 96.3134 9.76798C96.081 9.84724 95.8759 9.96613 95.6982 10.1247C95.5341 10.2832 95.4042 10.4747 95.3085 10.6993C95.2265 10.9107 95.1855 11.1484 95.1855 11.4126V17.1987H93.1142H91.6992H91.0225Z" fill="white"/>
<path d="M105.16 17.1987V6.59754H109.323V17.1987H105.16Z" fill="white"/>
<path d="M107.252 4.5962C106.513 4.5962 105.932 4.43107 105.509 4.10082C105.098 3.77056 104.893 3.3016 104.893 2.69393C104.893 2.1391 105.105 1.68335 105.529 1.32668C105.953 0.970004 106.527 0.791667 107.252 0.791667C107.99 0.791667 108.564 0.956794 108.974 1.28705C109.398 1.6173 109.61 2.08626 109.61 2.69393C109.61 3.24876 109.398 3.70451 108.974 4.06118C108.55 4.41786 107.976 4.5962 107.252 4.5962Z" fill="white"/>
<path fill-rule="evenodd" clip-rule="evenodd" d="M117.278 17.3969C115.883 17.3969 114.674 17.1591 113.648 16.6835C112.636 16.2079 111.857 15.5606 111.31 14.7416C110.764 13.9094 110.49 12.9582 110.49 11.8882C110.49 11.0692 110.647 10.3228 110.962 9.64909C111.276 8.97537 111.714 8.39412 112.274 7.90534C112.848 7.41657 113.511 7.04008 114.263 6.77588C115.015 6.51167 115.829 6.37957 116.704 6.37957C117.592 6.37957 118.406 6.51167 119.144 6.77588C119.882 7.04008 120.518 7.42317 121.051 7.92516C121.598 8.41394 122.015 8.99518 122.302 9.6689C122.603 10.3426 122.74 11.0824 122.712 11.8882L122.692 12.7403H114.625L114.694 12.8393C114.981 13.2092 115.384 13.5065 115.904 13.731C116.437 13.9424 117.08 14.0481 117.832 14.0481C118.474 14.0481 118.994 13.9886 119.39 13.8697C119.8 13.7376 120.149 13.5857 120.436 13.414L122.282 15.9305C121.749 16.2872 121.209 16.5778 120.662 16.8024C120.115 17.0138 119.561 17.1657 119.001 17.2581C118.454 17.3506 117.88 17.3969 117.278 17.3969ZM117.893 9.70853C118.221 9.82742 118.481 9.99255 118.672 10.2039C118.833 10.3594 118.935 10.5311 118.978 10.7191H114.452C114.496 10.6207 114.55 10.5283 114.612 10.4417C114.831 10.1379 115.125 9.91329 115.494 9.76798C115.877 9.60946 116.307 9.5302 116.786 9.5302C117.196 9.5302 117.565 9.58964 117.893 9.70853Z" fill="white"/>
<path d="M127.873 17.4167C126.97 17.4167 126.198 17.2383 125.555 16.8817C124.927 16.5118 124.441 15.9702 124.099 15.2568C123.758 14.5435 123.587 13.6782 123.587 12.661V6.59754H127.75V12.2449C127.75 12.6544 127.804 12.9913 127.914 13.2555C128.037 13.5197 128.228 13.7178 128.488 13.8499C128.748 13.982 129.069 14.0481 129.452 14.0481C129.725 14.0481 129.978 14.0084 130.211 13.9292C130.457 13.8499 130.669 13.731 130.846 13.5725C131.024 13.414 131.161 13.2356 131.256 13.0375C131.366 12.8261 131.421 12.595 131.421 12.344V6.59754H135.584V17.1987H131.769L131.623 15.9278C131.565 15.9889 131.505 16.0492 131.441 16.1089C131.031 16.5052 130.518 16.8222 129.903 17.06C129.301 17.2978 128.625 17.4167 127.873 17.4167Z" fill="white"/>
<path d="M145.59 17.4167C144.838 17.4167 144.264 17.2449 143.868 16.9015C143.471 16.5448 143.273 16.056 143.273 15.4351C143.273 14.8803 143.478 14.4114 143.888 14.0283C144.298 13.6452 144.866 13.4536 145.59 13.4536C146.342 13.4536 146.916 13.632 147.313 13.9886C147.709 14.3321 147.907 14.8143 147.907 15.4351C147.907 15.99 147.702 16.4589 147.292 16.842C146.882 17.2251 146.315 17.4167 145.59 17.4167Z" fill="white"/>
<path d="M156.166 17.3969C154.895 17.3969 153.76 17.2317 152.762 16.9015C151.764 16.5712 150.916 16.0957 150.219 15.4748C149.522 14.8407 148.989 14.0745 148.619 13.1762C148.25 12.2779 148.066 11.2739 148.066 10.1643C148.066 9.10747 148.264 8.14313 148.66 7.27126C149.071 6.38618 149.659 5.61999 150.424 4.97269C151.19 4.32539 152.092 3.8234 153.131 3.46673C154.184 3.11005 155.353 2.93172 156.638 2.93172C157.595 2.93172 158.47 3.0374 159.263 3.24876C160.056 3.46012 160.767 3.73754 161.396 4.081C162.024 4.41125 162.558 4.77453 162.995 5.17084L160.37 7.90534C160.069 7.66756 159.734 7.44959 159.365 7.25144C158.996 7.05329 158.579 6.89477 158.114 6.77588C157.663 6.64377 157.151 6.57772 156.576 6.57772C156.016 6.57772 155.496 6.67019 155.018 6.85514C154.539 7.02687 154.122 7.27126 153.767 7.5883C153.425 7.90535 153.152 8.28844 152.947 8.73759C152.755 9.17352 152.659 9.64909 152.659 10.1643C152.659 10.7587 152.762 11.2805 152.967 11.7297C153.172 12.1788 153.452 12.5553 153.808 12.8592C154.177 13.1498 154.601 13.3744 155.079 13.5329C155.571 13.6782 156.105 13.7508 156.679 13.7508C157.144 13.7508 157.568 13.698 157.95 13.5923C158.347 13.4734 158.689 13.3215 158.976 13.1366C159.263 12.9384 159.482 12.7006 159.632 12.4232C159.705 12.2826 159.762 12.1372 159.802 11.9873H156.105V8.99518H163.897C163.911 9.16692 163.925 9.4113 163.938 9.72835C163.966 10.0454 163.979 10.3558 163.979 10.6597C163.993 10.9503 164 11.1418 164 11.2343C164 12.1722 163.809 13.0243 163.426 13.7905C163.043 14.5567 162.503 15.204 161.806 15.7324C161.122 16.2608 160.302 16.6703 159.345 16.9609C158.388 17.2515 157.328 17.3969 156.166 17.3969Z" fill="white"/>
</svg>
