<svg width="201" height="24" viewBox="0 0 201 24" fill="none" xmlns="http://www.w3.org/2000/svg">
<path d="M128.885 21.7247V8.33373H133.987V21.7247H128.885ZM131.449 5.80572C130.544 5.80572 129.832 5.59714 129.312 5.17998C128.81 4.76281 128.558 4.17044 128.558 3.40286C128.558 2.70203 128.818 2.12634 129.337 1.6758C129.857 1.22527 130.561 1 131.449 1C132.353 1 133.057 1.20858 133.56 1.62575C134.079 2.04291 134.339 2.63528 134.339 3.40286C134.339 4.1037 134.079 4.67938 133.56 5.12992C133.04 5.58045 132.337 5.80572 131.449 5.80572Z" fill="#161616"/>
<path d="M178.437 22C177.515 22 176.811 21.7831 176.325 21.3492C175.84 20.8987 175.597 20.2813 175.597 19.497C175.597 18.7962 175.848 18.2038 176.351 17.7199C176.853 17.236 177.549 16.994 178.437 16.994C179.358 16.994 180.062 17.2193 180.548 17.6698C181.034 18.1037 181.277 18.7128 181.277 19.497C181.277 20.1979 181.026 20.7902 180.523 21.2741C180.02 21.758 179.325 22 178.437 22Z" fill="#161616"/>
<path d="M12.7853 18.0544H21.2027C20.8828 17.1246 20.7087 16.1239 20.7087 15.0816C20.7087 10.7717 23.6844 7.17592 27.6402 6.34431C27.7405 6.32323 27.8414 6.30392 27.9429 6.28643V2.48234C27.9429 0.275263 25.3455 -0.830046 23.8264 0.730594L17.5739 7.15408L11.0802 13.8253C9.56398 15.383 10.6329 18.0443 12.7731 18.0544L12.7853 18.0544Z" fill="#4E4AFF"/>
<path d="M21.2027 18.0544C22.3944 21.5183 25.61 24 29.3898 24H32.0423C33.3741 24 34.4538 22.8909 34.4538 21.5227V21.1511V17.8066H29.9926C28.4611 17.8066 27.2195 16.5311 27.2195 14.9577C27.2195 13.3843 28.4611 12.1087 29.9926 12.1087H34.4538V8.64046C34.4538 7.27226 33.3741 6.16312 32.0423 6.16312H29.3898C28.8968 6.16312 28.4135 6.20533 27.9429 6.28643C27.8414 6.30392 27.7405 6.32323 27.6402 6.34431C23.6844 7.17592 20.7087 10.7717 20.7087 15.0816C20.7087 16.1239 20.8828 17.1246 21.2027 18.0544Z" fill="#36A368"/>
<path d="M34.4538 12.1087H29.9926C28.4611 12.1087 27.2195 13.3843 27.2195 14.9577C27.2195 16.5311 28.4611 17.8066 29.9926 17.8066H34.4538V21.1511C34.4538 22.7245 35.6953 24 37.2269 24C38.7584 24 40 22.7245 40 21.1511V14.9577C40 13.3843 38.7584 12.1087 37.2269 12.1087H34.4538Z" fill="#FFA53B"/>
<path d="M13.4573 0.730564L0.71112 13.8253C-0.807985 15.3859 0.267909 18.0544 2.41625 18.0544H12.7731C10.6329 18.0443 9.56398 15.383 11.0802 13.8253L17.5739 7.15408V2.48231C17.5739 0.275233 14.9764 -0.830076 13.4573 0.730564Z" fill="#3A37BA"/>
<path d="M51 21.7247V4.20381H55.6749L60.881 11.7398L66.1558 4.20381H70.7302V21.7247H65.5023V17.4446C65.5023 15.9928 65.5358 14.6663 65.6029 13.4648C65.6211 13.1997 65.6417 12.9345 65.6647 12.6693L61.6568 18.0453H59.998L56.0565 12.6911C56.074 12.9236 56.0892 13.1565 56.1022 13.3898C56.186 14.5745 56.2279 15.9261 56.2279 17.4446V21.7247H51Z" fill="#161616"/>
<path fill-rule="evenodd" clip-rule="evenodd" d="M78.3382 21.9499C77.0144 21.9499 75.8583 21.6579 74.8697 21.0739C73.8978 20.4899 73.1354 19.6806 72.5825 18.646C72.0463 17.5948 71.7782 16.385 71.7782 15.0167C71.7782 13.6484 72.0463 12.447 72.5825 11.4124C73.1354 10.3611 73.9062 9.54351 74.8948 8.95948C75.8834 8.35876 77.0396 8.0584 78.3633 8.0584C79.0838 8.0584 79.7457 8.15018 80.3489 8.33373C80.9688 8.5006 81.505 8.74255 81.9574 9.0596C82.2605 9.25361 82.5286 9.46154 82.7617 9.6834V8.33373H87.7383V21.7247H82.6361V20.2739C82.4149 20.5002 82.1635 20.7085 81.882 20.8987C81.4129 21.2157 80.8767 21.4744 80.2735 21.6746C79.687 21.8582 79.0419 21.9499 78.3382 21.9499ZM81.3794 17.4946C80.927 17.7116 80.3908 17.82 79.7708 17.82C79.1341 17.82 78.5895 17.7116 78.1371 17.4946C77.7014 17.2777 77.3663 16.9607 77.1317 16.5435C76.8971 16.1263 76.7798 15.6174 76.7798 15.0167C76.7798 14.4327 76.8971 13.9321 77.1317 13.5149C77.3663 13.0811 77.7014 12.7557 78.1371 12.5387C78.5895 12.3051 79.1341 12.1883 79.7708 12.1883C80.3908 12.1883 80.927 12.3051 81.3794 12.5387C81.8318 12.7557 82.1753 13.0811 82.4099 13.5149C82.6444 13.9321 82.7617 14.4327 82.7617 15.0167C82.7617 15.6174 82.6444 16.1263 82.4099 16.5435C82.1753 16.9607 81.8318 17.2777 81.3794 17.4946Z" fill="#161616"/>
<path d="M91.4414 4.65435H96.5436V8.33373H99.2667H101.99V4.65435H107.092V8.33373H110.108V12.5888H107.092V21.7247H101.99V12.5888H99.3005H96.5436V21.7247H91.4414V12.5888H88.7521V8.33373H91.4414V4.65435Z" fill="#161616"/>
<path d="M111.558 21.7247V3.20262H116.535V9.75736C117.043 9.26156 117.654 8.8621 118.369 8.559C119.157 8.22527 120.003 8.0584 120.908 8.0584C122.047 8.0584 123.011 8.29202 123.798 8.75924C124.603 9.22646 125.206 9.87724 125.608 10.7116C126.01 11.5292 126.211 12.4803 126.211 13.565V21.7247H121.109V14.441C121.109 13.9404 121.025 13.5316 120.858 13.2145C120.69 12.8808 120.439 12.6222 120.104 12.4386C119.785 12.2551 119.408 12.1716 118.973 12.1883C118.637 12.1883 118.327 12.2384 118.043 12.3385C117.758 12.4386 117.506 12.5888 117.289 12.789C117.088 12.9893 116.928 13.2312 116.811 13.5149C116.711 13.7819 116.66 14.0822 116.66 14.416V21.7247H114.122H112.387H111.558Z" fill="#161616"/>
<path fill-rule="evenodd" clip-rule="evenodd" d="M143.737 21.975C142.028 21.975 140.545 21.6746 139.288 21.0739C138.048 20.4732 137.093 19.6555 136.423 18.621C135.753 17.5697 135.418 16.3683 135.418 15.0167C135.418 13.9821 135.61 13.0393 135.996 12.1883C136.381 11.3373 136.917 10.6031 137.604 9.9857C138.308 9.3683 139.121 8.89273 140.042 8.559C140.964 8.22527 141.961 8.0584 143.033 8.0584C144.122 8.0584 145.119 8.22527 146.024 8.559C146.929 8.89273 147.708 9.37664 148.362 10.0107C149.032 10.6281 149.543 11.3623 149.895 12.2134C150.264 13.0644 150.431 13.9988 150.398 15.0167L150.372 16.093H140.485L140.57 16.2181C140.922 16.6853 141.416 17.0608 142.053 17.3445C142.707 17.6114 143.494 17.7449 144.416 17.7449C145.203 17.7449 145.84 17.6698 146.326 17.5197C146.829 17.3528 147.256 17.1609 147.608 16.944L149.87 20.1228C149.216 20.5733 148.554 20.9404 147.884 21.2241C147.214 21.4911 146.535 21.683 145.848 21.7998C145.178 21.9166 144.474 21.975 143.737 21.975ZM144.491 12.2634C144.893 12.4136 145.212 12.6222 145.446 12.8892C145.643 13.0855 145.768 13.3025 145.821 13.5399H140.273C140.328 13.4157 140.393 13.2989 140.47 13.1895C140.738 12.8057 141.098 12.5221 141.55 12.3385C142.02 12.1383 142.547 12.0381 143.134 12.0381C143.637 12.0381 144.089 12.1132 144.491 12.2634Z" fill="#161616"/>
<path d="M156.722 22C155.616 22 154.669 21.7747 153.882 21.3242C153.111 20.857 152.516 20.1728 152.097 19.2718C151.679 18.3707 151.469 17.2777 151.469 15.9929V8.33373H156.571V15.4672C156.571 15.9845 156.638 16.41 156.772 16.7437C156.923 17.0775 157.158 17.3278 157.476 17.4946C157.794 17.6615 158.188 17.7449 158.657 17.7449C158.993 17.7449 159.303 17.6949 159.587 17.5948C159.889 17.4946 160.149 17.3445 160.367 17.1442C160.584 16.944 160.752 16.7187 160.869 16.4684C161.003 16.2014 161.07 15.9094 161.07 15.5924V8.33373H166.173V21.7247H161.498L161.318 20.1193C161.248 20.1965 161.174 20.2727 161.095 20.348C160.593 20.8486 159.964 21.2491 159.21 21.5495C158.473 21.8498 157.644 22 156.722 22Z" fill="#161616"/>
<path d="M191.399 21.975C189.84 21.975 188.45 21.7664 187.227 21.3492C186.003 20.9321 184.964 20.3313 184.11 19.5471C183.255 18.7461 182.602 17.7783 182.149 16.6436C181.697 15.5089 181.471 14.2408 181.471 12.8391C181.471 11.5042 181.714 10.2861 182.2 9.18474C182.702 8.06675 183.423 7.09893 184.361 6.28129C185.3 5.46365 186.406 4.82956 187.679 4.37902C188.969 3.92849 190.402 3.70322 191.977 3.70322C193.15 3.70322 194.222 3.83671 195.194 4.1037C196.166 4.37068 197.037 4.7211 197.808 5.15495C198.579 5.57211 199.232 6.03099 199.768 6.53159L196.551 9.9857C196.183 9.68534 195.772 9.41001 195.32 9.15971C194.867 8.90942 194.356 8.70918 193.787 8.559C193.234 8.39213 192.605 8.3087 191.901 8.3087C191.214 8.3087 190.578 8.42551 189.991 8.65912C189.405 8.87604 188.894 9.18475 188.458 9.58522C188.039 9.9857 187.704 10.4696 187.453 11.037C187.218 11.5876 187.101 12.1883 187.101 12.8391C187.101 13.59 187.227 14.2491 187.478 14.8165C187.729 15.3838 188.073 15.8594 188.508 16.2431C188.961 16.6103 189.48 16.8939 190.067 17.0942C190.67 17.2777 191.323 17.3695 192.027 17.3695C192.597 17.3695 193.116 17.3027 193.585 17.1693C194.071 17.0191 194.49 16.8272 194.842 16.5936C195.194 16.3433 195.462 16.0429 195.646 15.6925C195.736 15.5148 195.805 15.3313 195.855 15.1418H191.323V11.3623H200.874C200.891 11.5793 200.908 11.888 200.925 12.2884C200.958 12.6889 200.975 13.0811 200.975 13.4648C200.992 13.8319 201 14.0739 201 14.1907C201 15.3754 200.765 16.4517 200.296 17.4195C199.827 18.3874 199.165 19.205 198.311 19.8725C197.473 20.5399 196.468 21.0572 195.295 21.4243C194.122 21.7914 192.823 21.975 191.399 21.975Z" fill="#161616"/>
</svg>
